<svg xmlns="http://www.w3.org/2000/svg" width="32" height="32" viewBox="0 0 112 112"><rect width="100%" height="100%" rx="24"/><path fill="#fff" d="M28.052 23h-11.05a2 2 0 0 0-1.898 2.632l.062.184c.04.122.093.24.157.353l16.345 28.845c.347.612.347 1.36 0 1.972L15.323 85.831a1.92 1.92 0 0 0-.157.353l-.062.183A2 2 0 0 0 17.002 89h10.57c.715 0 1.375-.381 1.732-1L43.15 64c.357-.619 1.017-1 1.732-1H65.09a2 2 0 0 1 1.718.976l14.336 24.048a2.001 2.001 0 0 0 1.718.976h11.589a2 2 0 0 0 1.898-2.633l-.058-.17a1.927 1.927 0 0 0-.17-.376L79.316 57.008a2.001 2.001 0 0 1 0-2.016L96.123 26.18c.069-.12.126-.245.169-.375l.058-.172A2 2 0 0 0 94.452 23H83.345a2 2 0 0 0-1.704.952L66.813 48.048a2 2 0 0 1-1.704.952H44.902a2 2 0 0 1-1.747-1.026L29.799 24.026A2 2 0 0 0 28.052 23z"/></svg>